#Produced by Art of Illusion 3.0, Wed Dec 10 15:26:25 CET 2014
g Cylinder_1
v -0.52335 -1.56677 -1.54085
v 0.92949 -2.02901 -0.55605
v 1.19577 -1.51282 -0.96122
v 1.20032 -1.00485 -1.45463
v 0.94247 -0.58242 -1.96117
v 0.46145 -0.30985 -2.40372
v -0.16949 -0.22864 -2.71491
v -0.8543 -0.35115 -2.84735
v -1.48872 -0.65872 -2.78089
v -1.97618 -1.10453 -2.52565
v -2.24246 -1.62072 -2.12048
v -2.24702 -2.12869 -1.62706
v -1.98916 -2.55112 -1.12052
v -1.50815 -2.82369 -0.67797
v -0.87721 -2.9049 -0.36679
v -0.1924 -2.7824 -0.23434
v 0.44203 -2.47482 -0.3008
v -0.20382 0.97453 2.52565
v 0.06246 1.49072 2.12048
v 0.06702 1.99869 1.62706
v -0.19084 2.42112 1.12052
v -0.67185 2.69369 0.67797
v -1.30279 2.7749 0.36679
v -1.9876 2.6524 0.23434
v -2.62203 2.34482 0.3008
v -3.10949 1.89901 0.55605
v -3.37577 1.38282 0.96122
v -3.38032 0.87485 1.45463
v -3.12247 0.45242 1.96117
v -2.64145 0.17985 2.40372
v -2.01051 0.09864 2.71491
v -1.3257 0.22115 2.84735
v -0.69128 0.52872 2.78089
v -1.65665 1.43677 1.54085
vn 0.25468 -0.67495 -0.69252
vn 0.25468 -0.67495 -0.69252
vn 0.80046 -0.25468 0.54259
vn 0.25468 -0.67495 -0.69252
vn 0.94717 0.02972 0.31935
vn 0.25468 -0.67495 -0.69252
vn 0.94968 0.3096 0.0475
vn 0.25468 -0.67495 -0.69252
vn 0.80761 0.54234 -0.23158
vn 0.25468 -0.67495 -0.69252
vn 0.54259 0.69252 -0.47541
vn 0.25468 -0.67495 -0.69252
vn 0.19496 0.73726 -0.64687
vn 0.25468 -0.67495 -0.69252
vn -0.18234 0.66977 -0.71984
vn 0.25468 -0.67495 -0.69252
vn -0.53189 0.5003 -0.68322
vn 0.25468 -0.67495 -0.69252
vn -0.80046 0.25468 -0.54259
vn 0.25468 -0.67495 -0.69252
vn -0.94717 -0.02972 -0.31935
vn 0.25468 -0.67495 -0.69252
vn -0.94968 -0.3096 -0.0475
vn 0.25468 -0.67495 -0.69252
vn -0.80761 -0.54234 0.23158
vn 0.25468 -0.67495 -0.69252
vn -0.54259 -0.69252 0.47541
vn 0.25468 -0.67495 -0.69252
vn -0.19496 -0.73726 0.64687
vn 0.25468 -0.67495 -0.69252
vn 0.18234 -0.66977 0.71984
vn 0.25468 -0.67495 -0.69252
vn 0.53189 -0.5003 0.68322
vn -0.25468 0.67495 0.69252
vn 0.80046 -0.25468 0.54259
vn -0.25468 0.67495 0.69252
vn 0.94717 0.02972 0.31935
vn -0.25468 0.67495 0.69252
vn 0.94968 0.3096 0.0475
vn -0.25468 0.67495 0.69252
vn 0.80761 0.54234 -0.23158
vn -0.25468 0.67495 0.69252
vn 0.54259 0.69252 -0.47541
vn -0.25468 0.67495 0.69252
vn 0.19496 0.73726 -0.64687
vn -0.25468 0.67495 0.69252
vn -0.18234 0.66977 -0.71984
vn -0.25468 0.67495 0.69252
vn -0.53189 0.5003 -0.68322
vn -0.25468 0.67495 0.69252
vn -0.80046 0.25468 -0.54259
vn -0.25468 0.67495 0.69252
vn -0.94717 -0.02972 -0.31935
vn -0.25468 0.67495 0.69252
vn -0.94968 -0.3096 -0.0475
vn -0.25468 0.67495 0.69252
vn -0.80761 -0.54234 0.23158
vn -0.25468 0.67495 0.69252
vn -0.54259 -0.69252 0.47541
vn -0.25468 0.67495 0.69252
vn -0.19496 -0.73726 0.64687
vn -0.25468 0.67495 0.69252
vn 0.18234 -0.66977 0.71984
vn -0.25468 0.67495 0.69252
vn 0.53189 -0.5003 0.68322
vn -0.25468 0.67495 0.69252
f 3//4 2//2 1//1
f 4//6 3//4 1//1
f 5//8 4//6 1//1
f 6//10 5//8 1//1
f 7//12 6//10 1//1
f 8//14 7//12 1//1
f 9//16 8//14 1//1
f 10//18 9//16 1//1
f 11//20 10//18 1//1
f 12//22 11//20 1//1
f 13//24 12//22 1//1
f 14//26 13//24 1//1
f 15//28 14//26 1//1
f 16//30 15//28 1//1
f 17//32 16//30 1//1
f 2//2 17//32 1//1
f 18//35 2//3 3//5
f 19//37 3//5 4//7
f 20//39 4//7 5//9
f 21//41 5//9 6//11
f 22//43 6//11 7//13
f 23//45 7//13 8//15
f 24//47 8//15 9//17
f 25//49 9//17 10//19
f 26//51 10//19 11//21
f 27//53 11//21 12//23
f 28//55 12//23 13//25
f 29//57 13//25 14//27
f 30//59 14//27 15//29
f 31//61 15//29 16//31
f 32//63 16//31 17//33
f 33//65 17//33 2//3
f 18//35 3//5 19//37
f 19//37 4//7 20//39
f 20//39 5//9 21//41
f 21//41 6//11 22//43
f 22//43 7//13 23//45
f 23//45 8//15 24//47
f 24//47 9//17 25//49
f 25//49 10//19 26//51
f 26//51 11//21 27//53
f 27//53 12//23 28//55
f 28//55 13//25 29//57
f 29//57 14//27 30//59
f 30//59 15//29 31//61
f 31//61 16//31 32//63
f 32//63 17//33 33//65
f 33//65 2//3 18//35
f 34//66 18//34 19//36
f 34//66 19//36 20//38
f 34//66 20//38 21//40
f 34//66 21//40 22//42
f 34//66 22//42 23//44
f 34//66 23//44 24//46
f 34//66 24//46 25//48
f 34//66 25//48 26//50
f 34//66 26//50 27//52
f 34//66 27//52 28//54
f 34//66 28//54 29//56
f 34//66 29//56 30//58
f 34//66 30//58 31//60
f 34//66 31//60 32//62
f 34//66 32//62 33//64
f 34//66 33//64 18//34
